<?xml version="1.0" encoding="UTF-8"?>
<svg xmlns="http://www.w3.org/2000/svg" viewBox="0 0 552.6 282.68">
  <defs>
    <style>
      .cls-1 {
        fill: #8bbf3a;
      }

      .cls-2 {
        fill: #99b381;
      }

      .cls-3 {
        fill: #b9d47f;
      }

      .cls-4 {
        fill: #798776;
      }
    </style>
  </defs>
  <g id="Folha">
    <path class="cls-4" d="M473.88,71.15C398.53,13.79,171.11-40.45,171.69,42.58c.2,29.43,44.16,59.76,83.56,59.01,1.41-.03,1.96,1.9.82,2.72-83.21,59.75-131.3,87.1-194.45,91.42-26.38,1.81-44.48-6.07-57.66-14.88-2.12-1.42-4.49-.43-3.85,3.15,4.75,26.55,62.49,27.46,117.65,8.37,50.48-17.47,87.72-43.77,142.05-83.12,60.66-43.94,141.09-60.08,185.26-44.21,1.25.45,1.09,2.21-.25,2.23-78.97.94-137.95,88.06-153.92,102.26-13.05,11.61-25.17,11.13-28.6,8.25-15.81-13.25-2.57-49.17,12.99-69.11,1.04-1.33-.6-3.09-1.97-2.1-13.33,9.64-33.59,34.77-24.91,70.5,3.63,14.94,18.94,25.85,46.71,3.97,42.39-37.51,76.73-119.07,176.99-105.83,2.32.31,3.62-2.65,1.76-4.07ZM288.66,83.08c-7.19,3.56-14.49,7.5-21.91,11.84-1.41.82-3.9,1.58-5.54,1.58-35.62-.09-82.89-28.18-82.02-52.51,1.06-30,43.84-37.68,94.97-33.57,2.29.18,4.06,2.03,4.24,4.32,1.94,23.79,5.4,34.73,13.86,59.91,1.11,3.3-.49,6.89-3.61,8.44ZM323.44,65.44c-.69,2.06-2.27,3.71-4.29,4.51-3.29,1.31-5.73,2.2-8.95,3.42-1.66.63-3.33-.04-4.72-1.14-10.06-7.89-19.27-29.56-22.25-55.75-.31-2.73,2.13-5.04,4.87-4.78,12.99,1.25,26.4,3.44,39.72,6.47,2.89.66,4.85,3.34,4.65,6.3-.85,12.54-5.6,30.78-9.01,40.97ZM423.27,55.98c-27.72-1.77-56.46.99-83.48,7.66-2.99.74-5.79-1.7-5.45-4.76,1.77-16.03,2.13-26.74,1.84-34.95-.07-2.14,1.9-3.78,3.98-3.27,33.31,8.11,64.32,19.2,84.4,30.45,2.5,1.4,1.56,5.1-1.29,4.88Z"/>
  </g>
  <g id="Folha_verde_03" data-name="Folha verde 03">
    <path class="cls-3" d="M423.27,55.98c-27.72-1.77-56.46.99-83.48,7.66-2.99.74-5.79-1.7-5.45-4.76,1.77-16.03,2.13-26.74,1.84-34.95-.07-2.14,1.9-3.78,3.98-3.27,33.31,8.11,64.32,19.2,84.4,30.45,2.5,1.4,1.56,5.1-1.29,4.88Z"/>
  </g>
  <g id="Folha_verde_02" data-name="Folha verde 02">
    <path class="cls-2" d="M319.15,69.95c-3.29,1.31-5.73,2.2-8.95,3.42-1.66.63-3.33-.04-4.72-1.14-10.06-7.89-19.27-29.56-22.25-55.75-.31-2.73,2.13-5.04,4.87-4.78,12.99,1.25,26.4,3.44,39.72,6.47,2.89.66,4.85,3.34,4.65,6.3-.85,12.54-5.6,30.78-9.01,40.97-.69,2.06-2.27,3.71-4.29,4.51Z"/>
  </g>
  <g id="Folha_verde_01" data-name="Folha verde 01">
    <path class="cls-1" d="M288.66,83.08c-7.19,3.56-14.49,7.5-21.91,11.84-1.41.82-3.9,1.58-5.54,1.58-35.62-.09-82.89-28.18-82.02-52.51,1.06-30,43.84-37.68,94.97-33.57,2.29.18,4.06,2.03,4.24,4.32,1.94,23.79,5.4,34.73,13.86,59.91,1.11,3.3-.49,6.89-3.61,8.44Z"/>
  </g>
  <g id="Nome_claro" data-name="Nome claro">
    <path class="cls-1" d="M467.92,273.24c-.34-.59-.64-.89-.89-.89-.17,0-.51.09-1.02.26-2.04,1.02-3.95,1.53-5.74,1.53-2.98,0-4.72-1.61-5.23-4.85-.09-.76-.15-2.15-.19-4.14-.04-2-.07-4.53-.07-7.59v-67.72c0-.93-.26-1.4-.77-1.4h-.51c-.17,0-.3.04-.38.13l-6.5,1.53c-.94.17-1.4.68-1.4,1.53v73.33c0,1.78.02,3.17.07,4.14.04.98.1,1.72.19,2.23.08.51.21,1.11.38,1.78.59,2.75,2.04,4.95,4.34,6.59,2.3,1.64,5.18,2.46,8.67,2.46,1.19,0,2.42-.11,3.7-.32,1.28-.22,2.44-.48,3.51-.78,1.06-.3,1.93-.63,2.61-.97.68-.35,1.02-.69,1.02-1.04v-.26c0-.09-.08-.34-.26-.78l-1.53-4.78Z"/>
    <path class="cls-1" d="M500.95,273.24c-.34-.59-.64-.89-.89-.89-.17,0-.51.09-1.02.26-2.04,1.02-3.95,1.53-5.74,1.53-2.98,0-4.72-1.61-5.23-4.85-.09-.76-.15-2.15-.19-4.14-.04-2-.07-4.53-.07-7.59v-67.72c0-.93-.26-1.4-.77-1.4h-.51c-.17,0-.3.04-.38.13l-6.5,1.53c-.94.17-1.4.68-1.4,1.53v73.33c0,1.78.02,3.17.07,4.14.04.98.1,1.72.19,2.23.08.51.21,1.11.38,1.78.59,2.75,2.04,4.95,4.34,6.59,2.3,1.64,5.18,2.46,8.67,2.46,1.19,0,2.42-.11,3.7-.32,1.28-.22,2.44-.48,3.51-.78,1.06-.3,1.93-.63,2.61-.97.68-.35,1.02-.69,1.02-1.04v-.26c0-.09-.08-.34-.26-.78l-1.53-4.78Z"/>
  </g>
  <g id="Nome_escuro" data-name="Nome escuro">
    <path class="cls-4" d="M170.9,222.79c-4.76-3.27-9.95-4.9-15.56-4.9-4,0-7.61.79-10.84,2.36-3.23,1.57-5.95,3.81-8.16,6.69-2.21,2.89-3.91,6.44-5.1,10.65-1.19,4.21-1.78,8.91-1.78,14.09,0,9.78,2.1,17.39,6.31,22.83,4.21,5.44,10.14,8.16,17.79,8.16,3.15,0,6.25-.51,9.31-1.53,3.06-1.02,5.91-2.51,8.55-4.46,1.36-1.02,2.04-1.83,2.04-2.42,0-.08-.04-.28-.13-.57-.08-.3-.17-.53-.26-.7l-1.91-4.85c-.26-.51-.56-.77-.89-.77-.26,0-.56.13-.89.38-1.78,1.28-3.34,2.32-4.65,3.12-1.32.81-2.53,1.45-3.64,1.91-1.11.47-2.19.79-3.25.96-1.07.17-2.23.26-3.51.26-9.44,0-14.15-7.97-14.15-23.91s5.14-23.78,15.43-23.78c1.1,0,2.1.08,3,.26s1.83.47,2.8.89c.98.43,2.06,1.02,3.25,1.79,1.19.76,2.55,1.7,4.08,2.81.34.34.68.51,1.02.51s.68-.3,1.02-.89l2.8-4.97.13-.76c0-.84-.93-1.88-2.8-3.14Z"/>
    <path class="cls-4" d="M208.01,273.24c-.34-.59-.64-.89-.89-.89-.17,0-.51.09-1.02.26-2.04,1.02-3.95,1.53-5.74,1.53-2.98,0-4.72-1.61-5.23-4.85-.09-.76-.15-2.15-.19-4.14-.04-2-.07-4.53-.07-7.59v-67.72c0-.93-.26-1.4-.77-1.4h-.51c-.17,0-.3.04-.38.13l-6.5,1.53c-.94.17-1.4.68-1.4,1.53v73.33c0,1.78.02,3.17.07,4.14.04.98.1,1.72.19,2.23.08.51.21,1.11.38,1.78.59,2.75,2.04,4.95,4.34,6.59,2.3,1.64,5.18,2.46,8.67,2.46,1.19,0,2.42-.11,3.7-.32,1.28-.22,2.44-.48,3.51-.78,1.06-.3,1.93-.63,2.61-.97.68-.35,1.02-.69,1.02-1.04v-.26c0-.09-.08-.34-.26-.78l-1.53-4.78Z"/>
    <path class="cls-4" d="M240.65,217.89c-8.25,0-14.67,2.85-19.26,8.54-4.59,5.7-6.88,13.73-6.88,24.1s2.15,18.11,6.44,23.72c4.29,5.61,10.35,8.42,18.17,8.42,8.25,0,14.67-2.87,19.26-8.61,4.59-5.74,6.89-13.79,6.89-24.17s-2.17-17.87-6.5-23.53c-4.34-5.65-10.37-8.48-18.11-8.48ZM253.73,261.06c-.72,3.44-1.71,6.18-2.97,8.22-1.01,1.7-2.49,3.02-4.43,3.95-1.94.94-4.05,1.4-6.33,1.4s-4.53-.51-6.51-1.53c-1.98-1.02-3.52-2.38-4.61-4.08-1.18-2.12-2.13-4.93-2.85-8.42-.72-3.49-1.07-7.27-1.07-11.35,0-7.65,1.26-13.45,3.79-17.41,2.53-3.95,6.2-5.93,11.01-5.93,10.03,0,15.04,7.95,15.04,23.85,0,4.08-.36,7.84-1.08,11.29Z"/>
    <path class="cls-4" d="M307.17,218.59c-1.4-.47-2.83-.7-4.27-.7-1.36,0-2.57.13-3.64.38s-2.17.76-3.31,1.53-2.4,1.83-3.76,3.19c-1.36,1.36-3.06,3.19-5.1,5.48-.26-1.28-.57-2.55-.96-3.83-.38-1.27-.79-2.42-1.21-3.44-.43-1.02-.89-1.83-1.4-2.42s-.94-.89-1.28-.89-.68.13-1.02.38l-5.36,3.32c-.42.25-.64.64-.64,1.15,0,.26.17.68.51,1.28.68,1.19,1.21,2.27,1.6,3.25.38.98.68,2.08.89,3.32.21,1.23.36,2.66.45,4.27.08,1.62.13,3.7.13,6.25v38.26c0,.68.08,1.11.26,1.27.17.17.55.26,1.15.26h6.76c.59,0,.98-.08,1.15-.26.17-.17.26-.59.26-1.27v-42.21c1.61-1.87,3.04-3.42,4.27-4.66s2.31-2.23,3.25-3c.93-.77,1.81-1.3,2.61-1.6.81-.3,1.64-.45,2.49-.45.59,0,1.31.09,2.17.26,1.02.34,1.61.53,1.79.57.17.04.3.06.38.06.26,0,.47-.13.64-.38l3.06-7.14c.17-.34.26-.64.26-.89,0-.42-.7-.87-2.1-1.34Z"/>
    <path class="cls-4" d="M335.42,217.89c-8.25,0-14.67,2.85-19.26,8.54-4.59,5.7-6.88,13.73-6.88,24.1s2.15,18.11,6.44,23.72c4.29,5.61,10.35,8.42,18.17,8.42,8.25,0,14.67-2.87,19.26-8.61,4.59-5.74,6.89-13.79,6.89-24.17s-2.17-17.87-6.5-23.53c-4.34-5.65-10.37-8.48-18.11-8.48ZM348.5,261.06c-.72,3.44-1.71,6.18-2.97,8.22-1.01,1.7-2.49,3.02-4.43,3.95-1.94.94-4.05,1.4-6.33,1.4s-4.53-.51-6.51-1.53c-1.98-1.02-3.52-2.38-4.61-4.08-1.18-2.12-2.13-4.93-2.85-8.42-.72-3.49-1.07-7.27-1.07-11.35,0-7.65,1.26-13.45,3.79-17.41,2.53-3.95,6.2-5.93,11.01-5.93,10.03,0,15.04,7.95,15.04,23.85,0,4.08-.36,7.84-1.08,11.29Z"/>
    <path class="cls-4" d="M426.29,219.68h-42.79v-9.82c0-3.32.13-5.68.38-7.08.26-1.4.72-2.57,1.4-3.51,1.19-1.7,3.14-2.55,5.86-2.55,1.45,0,3.02.23,4.72.7,1.7.47,3.4,1.13,5.1,1.98.51.26.93.38,1.27.38.42,0,.72-.26.89-.77l2.17-5.18c.17-.33.26-.59.26-.75,0-.5-.45-1-1.34-1.51-.89-.5-2.04-.96-3.44-1.38-1.4-.42-2.91-.77-4.53-1.07-1.61-.29-3.19-.44-4.72-.44-6.29,0-11.05,2.12-14.28,6.35-1.28,1.69-2.15,3.58-2.61,5.65-.47,2.07-.7,5.1-.7,9.08v9.91h-8.42c-.68,0-1.1.09-1.27.26s-.26.6-.26,1.28v4.97c0,.59.08.98.26,1.15.17.17.59.26,1.27.26h8.42v51.78c0,.68.08,1.11.26,1.27.17.17.55.26,1.15.26h6.76c.59,0,.98-.08,1.15-.26.17-.17.26-.59.26-1.27v-51.78h28s0,0,0,0h6.62v51.78c0,.68.08,1.1.26,1.27.17.17.55.25,1.15.25h6.76c.59,0,.98-.08,1.15-.26.17-.17.26-.59.26-1.27v-58.15c0-.68-.09-1.1-.26-1.28-.17-.17-.56-.26-1.15-.26Z"/>
    <path class="cls-4" d="M413.53,192.39c-2.21,0-4.08.74-5.61,2.23-1.53,1.49-2.3,3.3-2.3,5.42s.74,4.06,2.23,5.55c1.49,1.49,3.34,2.23,5.55,2.23s3.93-.74,5.42-2.23c1.49-1.49,2.23-3.34,2.23-5.55s-.74-3.93-2.23-5.42c-1.49-1.49-3.25-2.23-5.29-2.23Z"/>
    <path class="cls-4" d="M552.34,276.94c-.68-1.28-1.26-2.44-1.72-3.51-.47-1.06-.83-2.21-1.08-3.44-.26-1.23-.43-2.61-.51-4.14-.09-1.53-.13-3.4-.13-5.61v-24.1c0-6.12-1.62-10.63-4.85-13.52-3.23-2.89-8.25-4.34-15.05-4.34-6.21,0-11.86,1.15-16.96,3.44-1.45.6-2.38,1.04-2.81,1.34-.42.3-.63.66-.63,1.08l.13,1.02,1.91,5.1c.17.43.47.64.89.64.08,0,.38-.08.89-.26,3.31-1.45,6.06-2.42,8.23-2.93,2.17-.51,4.48-.77,6.95-.77,4.25,0,7.27.87,9.05,2.61,1.79,1.75,2.68,4.66,2.68,8.74v4.21c-22.45.34-33.67,7.74-33.67,22.19,0,5.36,1.51,9.61,4.53,12.75,3.01,3.15,7.12,4.72,12.31,4.72,3.57,0,6.78-.64,9.63-1.91,2.85-1.27,5.72-3.31,8.61-6.12.68,2.12,1.49,4,2.42,5.61.93,1.61,1.74,2.42,2.42,2.42.25,0,.59-.13,1.02-.38l5.48-3.44c.34-.17.51-.38.51-.64,0-.17-.09-.42-.26-.76ZM539.33,266.86c-5.44,4.85-10.29,7.27-14.54,7.27-2.72,0-4.95-.96-6.69-2.87-1.74-1.91-2.61-4.36-2.61-7.33,0-8.93,7.95-13.43,23.85-13.52v16.45Z"/>
  </g>
</svg>