<?xml version="1.0" encoding="UTF-8"?>
<svg xmlns="http://www.w3.org/2000/svg" viewBox="0 0 661.42 205.48">
  <defs>
    <style>
      .cls-1, .cls-2 {
        fill: #fff;
      }

      .cls-2 {
        opacity: .5;
      }

      .cls-3 {
        opacity: .72;
      }
    </style>
  </defs>
  <g id="nome_opacidade_100" data-name="nome opacidade 100">
    <g>
      <path class="cls-1" d="M35.29,75.8c-4.06-2.78-8.47-4.17-13.25-4.17-3.4,0-6.48.67-9.23,2.01-2.75,1.34-5.07,3.24-6.95,5.7-1.88,2.46-3.33,5.48-4.34,9.07-1.01,3.58-1.52,7.58-1.52,12,0,8.33,1.79,14.81,5.37,19.44,3.58,4.63,8.63,6.95,15.15,6.95,2.68,0,5.32-.43,7.93-1.3,2.61-.87,5.03-2.14,7.28-3.8,1.16-.87,1.74-1.56,1.74-2.06,0-.07-.04-.23-.11-.49-.07-.25-.14-.45-.22-.6l-1.63-4.13c-.22-.43-.47-.65-.76-.65-.22,0-.47.11-.76.33-1.52,1.09-2.84,1.97-3.96,2.66-1.12.69-2.16,1.23-3.1,1.63-.94.4-1.86.67-2.77.81-.91.15-1.9.22-2.99.22-8.04,0-12.05-6.79-12.05-20.36s4.38-20.25,13.14-20.25c.94,0,1.79.07,2.55.22s1.56.4,2.39.76c.83.36,1.76.87,2.77,1.52,1.01.65,2.17,1.45,3.47,2.39.29.29.58.43.87.43s.58-.25.87-.76l2.39-4.23.11-.65c0-.71-.8-1.6-2.39-2.67Z"/>
      <path class="cls-1" d="M66.89,118.75c-.29-.51-.54-.76-.76-.76-.15,0-.43.07-.87.22-1.74.87-3.37,1.3-4.89,1.3-2.53,0-4.02-1.37-4.45-4.13-.07-.65-.13-1.83-.16-3.53-.04-1.7-.06-3.85-.06-6.46v-57.66c0-.8-.22-1.2-.65-1.2h-.43c-.14,0-.25.04-.32.11l-5.54,1.3c-.8.15-1.2.58-1.2,1.3v62.44c0,1.52.02,2.7.06,3.53.04.83.09,1.47.16,1.9.07.43.18.94.33,1.52.51,2.35,1.74,4.22,3.69,5.61,1.96,1.4,4.41,2.1,7.38,2.1,1.01,0,2.06-.09,3.15-.28,1.09-.19,2.08-.41,2.99-.66.9-.26,1.64-.53,2.23-.83.58-.3.87-.59.87-.88v-.22c0-.07-.07-.29-.22-.66l-1.3-4.07Z"/>
      <path class="cls-1" d="M94.69,71.62c-7.02,0-12.49,2.43-16.4,7.28-3.91,4.85-5.86,11.69-5.86,20.52s1.83,15.42,5.48,20.2c3.66,4.78,8.81,7.17,15.47,7.17,7.02,0,12.49-2.44,16.4-7.33,3.91-4.89,5.86-11.75,5.86-20.58s-1.84-15.22-5.54-20.04c-3.69-4.81-8.83-7.22-15.42-7.22ZM105.83,108.38c-.61,2.93-1.45,5.27-2.53,7-.86,1.45-2.12,2.57-3.77,3.37-1.65.8-3.45,1.19-5.39,1.19s-3.86-.43-5.54-1.3c-1.69-.87-3-2.03-3.93-3.47-1-1.81-1.81-4.2-2.42-7.17-.61-2.97-.91-6.19-.91-9.67,0-6.52,1.07-11.46,3.23-14.82,2.15-3.37,5.28-5.05,9.37-5.05,8.54,0,12.81,6.77,12.81,20.31,0,3.47-.31,6.68-.92,9.61Z"/>
      <path class="cls-1" d="M151.33,72.22c-1.2-.4-2.41-.6-3.64-.6-1.16,0-2.19.11-3.1.33s-1.84.65-2.82,1.3-2.05,1.56-3.2,2.72c-1.16,1.16-2.6,2.72-4.34,4.67-.22-1.09-.49-2.17-.81-3.26-.33-1.09-.67-2.06-1.03-2.93-.36-.87-.76-1.56-1.2-2.06s-.8-.76-1.09-.76-.58.11-.87.33l-4.56,2.82c-.36.22-.54.54-.54.98,0,.22.15.58.43,1.09.58,1.01,1.03,1.94,1.36,2.77.32.83.58,1.78.76,2.82.18,1.05.31,2.26.38,3.64.07,1.38.11,3.15.11,5.32v32.58c0,.58.07.94.22,1.09.14.15.47.22.98.22h5.76c.51,0,.83-.07.98-.22.14-.14.22-.51.22-1.09v-35.94c1.37-1.59,2.59-2.91,3.64-3.96s1.97-1.9,2.77-2.55c.8-.65,1.54-1.1,2.23-1.36.69-.25,1.4-.38,2.12-.38.51,0,1.12.07,1.84.22.87.29,1.37.45,1.52.49.14.04.25.05.33.05.22,0,.4-.11.54-.33l2.6-6.08c.14-.29.22-.54.22-.76,0-.36-.6-.74-1.79-1.14Z"/>
      <path class="cls-1" d="M175.39,71.62c-7.02,0-12.49,2.43-16.4,7.28-3.91,4.85-5.86,11.69-5.86,20.52s1.83,15.42,5.48,20.2c3.66,4.78,8.81,7.17,15.47,7.17,7.02,0,12.49-2.44,16.4-7.33,3.91-4.89,5.86-11.75,5.86-20.58s-1.84-15.22-5.54-20.04c-3.69-4.81-8.83-7.22-15.42-7.22ZM186.52,108.38c-.61,2.93-1.45,5.27-2.53,7-.86,1.45-2.12,2.57-3.77,3.37-1.65.8-3.45,1.19-5.39,1.19s-3.86-.43-5.54-1.3c-1.69-.87-3-2.03-3.93-3.47-1-1.81-1.81-4.2-2.42-7.17-.61-2.97-.91-6.19-.91-9.67,0-6.52,1.07-11.46,3.23-14.82,2.15-3.37,5.28-5.05,9.37-5.05,8.54,0,12.81,6.77,12.81,20.31,0,3.47-.31,6.68-.92,9.61Z"/>
      <path class="cls-1" d="M252.76,73.14h-36.44v-8.36c0-2.82.11-4.83.33-6.03.22-1.2.61-2.19,1.2-2.99,1.01-1.45,2.68-2.17,4.99-2.17,1.23,0,2.57.2,4.02.6,1.44.4,2.89.96,4.34,1.68.43.22.8.33,1.08.33.36,0,.61-.22.76-.65l1.85-4.41c.14-.28.22-.5.22-.64,0-.43-.38-.85-1.14-1.28-.76-.43-1.74-.82-2.93-1.17-1.2-.36-2.48-.66-3.86-.91-1.37-.25-2.71-.37-4.02-.37-5.36,0-9.41,1.8-12.16,5.41-1.09,1.44-1.83,3.05-2.23,4.81-.4,1.77-.6,4.34-.6,7.73v8.44h-7.17c-.58,0-.94.07-1.08.22s-.22.51-.22,1.09v4.23c0,.51.07.83.22.98.14.15.51.22,1.08.22h7.17v44.09c0,.58.07.94.22,1.09.14.15.47.22.98.22h5.76c.51,0,.83-.07.98-.22.14-.14.22-.51.22-1.09v-44.09h23.85s0,0,0,0h5.64v44.09c0,.58.07.94.22,1.08.14.14.47.22.98.22h5.76c.51,0,.83-.07.98-.22.14-.14.22-.51.22-1.09v-49.52c0-.58-.07-.94-.22-1.09-.15-.14-.47-.22-.98-.22Z"/>
      <path class="cls-1" d="M249.18,47.3c-1.88,0-3.47.63-4.78,1.9-1.3,1.27-1.96,2.81-1.96,4.62s.63,3.46,1.9,4.72c1.27,1.27,2.84,1.9,4.73,1.9s3.35-.63,4.61-1.9c1.27-1.27,1.9-2.84,1.9-4.72s-.63-3.35-1.9-4.62c-1.27-1.27-2.77-1.9-4.51-1.9Z"/>
      <path class="cls-1" d="M288.21,118.75c-.29-.51-.54-.76-.76-.76-.15,0-.43.07-.87.22-1.74.87-3.37,1.3-4.89,1.3-2.53,0-4.02-1.37-4.45-4.13-.07-.65-.13-1.83-.16-3.53-.04-1.7-.06-3.85-.06-6.46v-57.66c0-.8-.22-1.2-.65-1.2h-.43c-.14,0-.25.04-.32.11l-5.54,1.3c-.8.15-1.2.58-1.2,1.3v62.44c0,1.52.02,2.7.06,3.53.04.83.09,1.47.16,1.9.07.43.18.94.33,1.52.51,2.35,1.74,4.22,3.69,5.61,1.96,1.4,4.41,2.1,7.38,2.1,1.01,0,2.06-.09,3.15-.28,1.09-.19,2.08-.41,2.99-.66.9-.26,1.64-.53,2.23-.83.58-.3.87-.59.87-.88v-.22c0-.07-.07-.29-.22-.66l-1.3-4.07Z"/>
      <path class="cls-1" d="M316.34,118.75c-.29-.51-.54-.76-.76-.76-.15,0-.43.07-.87.22-1.74.87-3.37,1.3-4.89,1.3-2.53,0-4.02-1.37-4.45-4.13-.07-.65-.13-1.83-.16-3.53-.04-1.7-.06-3.85-.06-6.46v-57.66c0-.8-.22-1.2-.65-1.2h-.43c-.14,0-.25.04-.32.11l-5.54,1.3c-.8.15-1.2.58-1.2,1.3v62.44c0,1.52.02,2.7.06,3.53.04.83.09,1.47.16,1.9.07.43.18.94.33,1.52.51,2.35,1.74,4.22,3.69,5.61,1.96,1.4,4.41,2.1,7.38,2.1,1.01,0,2.06-.09,3.15-.28,1.09-.19,2.08-.41,2.99-.66.9-.26,1.64-.53,2.23-.83.58-.3.87-.59.87-.88v-.22c0-.07-.07-.29-.22-.66l-1.3-4.07Z"/>
      <path class="cls-1" d="M360.09,121.9c-.58-1.09-1.07-2.08-1.47-2.99-.4-.9-.7-1.88-.92-2.93-.22-1.05-.36-2.23-.43-3.53-.07-1.3-.11-2.9-.11-4.78v-20.52c0-5.21-1.38-9.05-4.13-11.51-2.75-2.46-7.02-3.69-12.81-3.69-5.29,0-10.1.98-14.44,2.93-1.23.51-2.03.89-2.39,1.14-.36.25-.54.56-.54.92l.11.87,1.63,4.34c.14.36.4.54.76.54.07,0,.33-.07.76-.22,2.82-1.23,5.16-2.06,7-2.5,1.84-.43,3.82-.65,5.92-.65,3.62,0,6.19.74,7.71,2.23,1.52,1.49,2.28,3.96,2.28,7.44v3.58c-19.11.29-28.67,6.59-28.67,18.89,0,4.56,1.28,8.18,3.86,10.86,2.57,2.68,6.06,4.02,10.48,4.02,3.04,0,5.77-.54,8.2-1.63,2.42-1.09,4.87-2.82,7.33-5.21.58,1.81,1.27,3.4,2.06,4.78.8,1.37,1.48,2.06,2.06,2.06.21,0,.51-.11.87-.33l4.67-2.93c.29-.14.43-.33.43-.54,0-.14-.07-.36-.22-.65ZM349.02,113.32c-4.63,4.13-8.76,6.19-12.38,6.19-2.32,0-4.22-.81-5.7-2.44-1.48-1.63-2.23-3.71-2.23-6.25,0-7.6,6.77-11.44,20.31-11.51v14.01Z"/>
    </g>
  </g>
  <g id="folha_opacidade_100" data-name="folha opacidade 100">
    <path class="cls-1" d="M660.53,71.15c-75.35-57.36-302.76-111.6-302.19-28.57.2,29.43,44.16,59.76,83.56,59.01,1.41-.03,1.96,1.9.82,2.72-83.21,59.75-131.3,87.1-194.45,91.42-26.38,1.81-44.48-6.07-57.66-14.88-2.12-1.42-4.49-.43-3.85,3.15,4.75,26.55,62.49,27.46,117.65,8.37,50.48-17.47,87.72-43.77,142.05-83.12,60.66-43.94,141.09-60.08,185.26-44.21,1.25.45,1.09,2.21-.25,2.23-78.97.94-137.95,88.06-153.92,102.26-13.05,11.61-25.17,11.13-28.6,8.25-15.81-13.25-2.57-49.17,12.99-69.11,1.04-1.33-.6-3.09-1.97-2.1-13.33,9.64-33.59,34.77-24.91,70.5,3.63,14.94,18.94,25.85,46.71,3.97,42.39-37.51,76.73-119.07,176.99-105.83,2.32.31,3.62-2.65,1.76-4.07ZM475.32,83.08c-7.19,3.56-14.49,7.5-21.91,11.84-1.41.82-3.9,1.58-5.54,1.58-35.62-.09-82.89-28.18-82.02-52.51,1.06-30,43.84-37.68,94.97-33.57,2.29.18,4.06,2.03,4.24,4.32,1.94,23.79,5.4,34.73,13.86,59.91,1.11,3.3-.49,6.89-3.61,8.44ZM510.1,65.44c-.69,2.06-2.27,3.71-4.29,4.51-3.29,1.31-5.73,2.2-8.95,3.42-1.66.63-3.33-.04-4.72-1.14-10.06-7.89-19.27-29.56-22.25-55.75-.31-2.73,2.13-5.04,4.87-4.78,12.99,1.25,26.4,3.44,39.72,6.47,2.89.66,4.85,3.34,4.65,6.3-.85,12.54-5.6,30.78-9.01,40.97ZM609.93,55.98c-27.72-1.77-56.46.99-83.48,7.66-2.99.74-5.79-1.7-5.45-4.76,1.77-16.03,2.13-26.74,1.84-34.95-.07-2.14,1.9-3.78,3.98-3.27,33.31,8.11,64.32,19.2,84.4,30.45,2.5,1.4,1.56,5.1-1.3,4.88Z"/>
  </g>
  <g id="folha_opacidade_50" data-name="folha opacidade 50" class="cls-3">
    <path class="cls-2" d="M475.32,83.08c-7.19,3.56-14.49,7.5-21.91,11.84-1.41.82-3.9,1.58-5.54,1.58-35.62-.09-82.89-28.18-82.02-52.51,1.06-30,43.84-37.68,94.97-33.57,2.29.18,4.06,2.03,4.24,4.32,1.94,23.79,5.4,34.73,13.86,59.91,1.11,3.3-.49,6.89-3.61,8.44Z"/>
    <path class="cls-2" d="M505.81,69.95c-3.29,1.31-5.73,2.2-8.95,3.42-1.66.63-3.33-.04-4.72-1.14-10.06-7.89-19.27-29.56-22.25-55.75-.31-2.73,2.13-5.04,4.87-4.78,12.99,1.25,26.4,3.44,39.72,6.47,2.89.66,4.85,3.34,4.65,6.3-.85,12.54-5.6,30.78-9.01,40.97-.69,2.06-2.27,3.71-4.29,4.51Z"/>
    <path class="cls-2" d="M609.93,55.98c-27.72-1.77-56.46.99-83.48,7.66-2.99.74-5.79-1.7-5.45-4.76,1.77-16.03,2.13-26.74,1.84-34.95-.07-2.14,1.9-3.78,3.98-3.27,33.31,8.11,64.32,19.2,84.4,30.45,2.5,1.4,1.56,5.1-1.29,4.88Z"/>
  </g>
</svg>