<?xml version="1.0" encoding="UTF-8"?>
<svg id="Camada_2" data-name="Camada 2" xmlns="http://www.w3.org/2000/svg" viewBox="0 0 555.58 284.76">
  <defs>
    <style>
      .cls-1, .cls-2 {
        fill: #fff;
      }

      .cls-2 {
        opacity: .5;
      }
    </style>
  </defs>
  <g id="nome_vertical_opacidade_100" data-name="nome vertical opacidade 100">
    <g>
      <path class="cls-1" d="M171.43,221.07c-5.07-3.47-10.58-5.21-16.55-5.21-4.25,0-8.1.84-11.53,2.51-3.44,1.67-6.33,4.05-8.68,7.12-2.35,3.08-4.16,6.85-5.43,11.33-1.27,4.48-1.9,9.47-1.9,14.99,0,10.4,2.24,18.49,6.71,24.28,4.48,5.79,10.78,8.68,18.92,8.68,3.35,0,6.65-.54,9.9-1.63,3.26-1.09,6.28-2.67,9.09-4.75,1.45-1.09,2.17-1.94,2.17-2.58,0-.09-.04-.29-.14-.61-.09-.32-.18-.56-.27-.75l-2.03-5.15c-.27-.54-.59-.81-.95-.81-.27,0-.59.14-.95.41-1.9,1.36-3.55,2.47-4.95,3.32-1.4.86-2.69,1.54-3.87,2.03-1.18.5-2.33.84-3.46,1.02-1.13.18-2.37.27-3.73.27-10.04,0-15.05-8.48-15.05-25.43s5.47-25.3,16.41-25.3c1.17,0,2.24.09,3.19.27s1.94.5,2.98.95c1.04.45,2.19,1.09,3.46,1.9,1.27.81,2.71,1.81,4.34,2.98.36.36.72.54,1.09.54s.72-.32,1.09-.95l2.98-5.29.14-.81c0-.89-.99-2-2.98-3.34Z"/>
      <path class="cls-1" d="M209.37,274.72c-.36-.63-.68-.95-.95-.95-.18,0-.54.09-1.09.27-2.17,1.09-4.2,1.63-6.1,1.63-3.17,0-5.02-1.72-5.56-5.16-.09-.81-.16-2.28-.2-4.41-.05-2.12-.07-4.81-.07-8.07v-72.02c0-.99-.27-1.49-.81-1.49h-.54c-.18,0-.32.05-.4.14l-6.92,1.63c-1,.18-1.49.73-1.49,1.63v77.99c0,1.9.02,3.37.07,4.41.04,1.04.11,1.83.2,2.38.09.54.22,1.18.41,1.9.63,2.93,2.17,5.27,4.61,7.01,2.44,1.74,5.51,2.62,9.22,2.62,1.27,0,2.58-.12,3.94-.34,1.36-.23,2.6-.51,3.73-.83,1.13-.32,2.05-.67,2.78-1.03.72-.37,1.08-.74,1.08-1.1v-.28c0-.09-.09-.37-.27-.83l-1.63-5.08Z"/>
      <path class="cls-1" d="M242.32,215.86c-8.77,0-15.6,3.03-20.48,9.09-4.88,6.06-7.32,14.6-7.32,25.64s2.28,19.26,6.85,25.23c4.57,5.97,11.01,8.95,19.33,8.95,8.77,0,15.6-3.05,20.48-9.15,4.89-6.1,7.33-14.67,7.33-25.7s-2.3-19.01-6.92-25.02c-4.61-6.01-11.03-9.02-19.26-9.02ZM256.23,261.77c-.76,3.66-1.82,6.58-3.16,8.75-1.08,1.81-2.64,3.21-4.71,4.21-2.07,1-4.31,1.49-6.73,1.49s-4.82-.54-6.93-1.63c-2.11-1.09-3.74-2.53-4.91-4.34-1.25-2.26-2.26-5.24-3.03-8.95-.76-3.71-1.14-7.73-1.14-12.07,0-8.14,1.34-14.31,4.03-18.51,2.69-4.21,6.59-6.31,11.71-6.31,10.67,0,16,8.46,16,25.36,0,4.34-.38,8.34-1.14,12Z"/>
      <path class="cls-1" d="M309.21,216.64c-1.49-.5-3.01-.75-4.54-.75-1.45,0-2.74.14-3.87.41s-2.3.81-3.53,1.63-2.56,1.95-4,3.39c-1.45,1.45-3.25,3.39-5.43,5.83-.27-1.36-.61-2.71-1.02-4.07-.41-1.36-.84-2.58-1.29-3.66-.45-1.09-.95-1.94-1.49-2.58s-1-.95-1.36-.95-.73.14-1.09.41l-5.7,3.53c-.45.27-.68.68-.68,1.22,0,.27.18.72.54,1.36.72,1.27,1.29,2.42,1.7,3.46.4,1.04.72,2.22.95,3.53.23,1.31.39,2.83.48,4.54.09,1.72.14,3.93.14,6.65v40.69c0,.72.09,1.18.27,1.36.18.18.59.27,1.22.27h7.19c.63,0,1.04-.09,1.22-.27.18-.18.27-.63.27-1.36v-44.9c1.72-1.99,3.23-3.64,4.54-4.95s2.46-2.37,3.46-3.19c.99-.81,1.92-1.38,2.78-1.7.86-.32,1.74-.48,2.65-.48.63,0,1.4.09,2.3.27,1.09.36,1.72.57,1.9.61.18.05.32.07.41.07.27,0,.5-.14.68-.41l3.25-7.6c.18-.36.27-.68.27-.95,0-.45-.74-.93-2.24-1.42Z"/>
      <path class="cls-1" d="M337.08,215.86c-8.77,0-15.6,3.03-20.48,9.09-4.88,6.06-7.32,14.6-7.32,25.64s2.28,19.26,6.85,25.23c4.57,5.97,11.01,8.95,19.33,8.95,8.77,0,15.6-3.05,20.48-9.15,4.89-6.1,7.33-14.67,7.33-25.7s-2.3-19.01-6.92-25.02c-4.61-6.01-11.03-9.02-19.26-9.02ZM350.99,261.77c-.76,3.66-1.82,6.58-3.16,8.75-1.08,1.81-2.64,3.21-4.71,4.21-2.07,1-4.31,1.49-6.73,1.49s-4.82-.54-6.93-1.63c-2.11-1.09-3.74-2.53-4.91-4.34-1.25-2.26-2.26-5.24-3.03-8.95-.76-3.71-1.14-7.73-1.14-12.07,0-8.14,1.34-14.31,4.03-18.51,2.69-4.21,6.59-6.31,11.71-6.31,10.67,0,16,8.46,16,25.36,0,4.34-.38,8.34-1.14,12Z"/>
      <path class="cls-1" d="M430.25,217.76h-45.51v-10.44c0-3.53.14-6.04.41-7.53.27-1.49.77-2.73,1.49-3.73,1.26-1.81,3.34-2.71,6.24-2.71,1.54,0,3.21.25,5.02.75,1.8.5,3.61,1.2,5.43,2.1.54.27.99.41,1.35.41.45,0,.77-.27.95-.81l2.31-5.51c.18-.36.27-.62.27-.8,0-.53-.48-1.07-1.43-1.6-.95-.53-2.17-1.02-3.66-1.47-1.49-.45-3.1-.82-4.82-1.14-1.72-.31-3.39-.47-5.02-.47-6.69,0-11.75,2.25-15.19,6.76-1.36,1.8-2.29,3.81-2.78,6.01-.5,2.21-.74,5.43-.74,9.65v10.54h-8.95c-.72,0-1.17.09-1.35.27s-.27.63-.27,1.36v5.29c0,.63.09,1.04.27,1.22.18.18.63.27,1.35.27h8.95v55.07c0,.72.09,1.18.27,1.36.18.18.59.27,1.22.27h7.19c.63,0,1.04-.09,1.22-.27.18-.18.27-.63.27-1.36v-55.07h29.78s0,0,0,0h7.04v55.07c0,.72.09,1.17.27,1.35.18.18.59.27,1.22.27h7.19c.63,0,1.04-.09,1.22-.27.18-.18.27-.63.27-1.36v-61.85c0-.72-.09-1.17-.27-1.36-.18-.18-.59-.27-1.22-.27Z"/>
      <path class="cls-1" d="M427.07,192.39c-2.35,0-4.34.79-5.97,2.37-1.63,1.58-2.44,3.5-2.44,5.76s.79,4.32,2.37,5.9c1.58,1.58,3.55,2.37,5.9,2.37s4.18-.79,5.76-2.37c1.58-1.58,2.37-3.55,2.37-5.9s-.79-4.18-2.37-5.76c-1.58-1.58-3.46-2.37-5.63-2.37Z"/>
      <path class="cls-1" d="M469.37,274.72c-.36-.63-.68-.95-.95-.95-.18,0-.54.09-1.09.27-2.17,1.09-4.2,1.63-6.1,1.63-3.17,0-5.02-1.72-5.56-5.16-.09-.81-.16-2.28-.2-4.41-.05-2.12-.07-4.81-.07-8.07v-72.02c0-.99-.27-1.49-.81-1.49h-.54c-.18,0-.32.05-.4.14l-6.92,1.63c-1,.18-1.49.73-1.49,1.63v77.99c0,1.9.02,3.37.07,4.41.04,1.04.11,1.83.2,2.38.09.54.22,1.18.41,1.9.63,2.93,2.17,5.27,4.61,7.01,2.44,1.74,5.51,2.62,9.22,2.62,1.27,0,2.58-.12,3.94-.34,1.36-.23,2.6-.51,3.73-.83,1.13-.32,2.05-.67,2.78-1.03.72-.37,1.08-.74,1.08-1.1v-.28c0-.09-.09-.37-.27-.83l-1.63-5.08Z"/>
      <path class="cls-1" d="M501.62,274.72c-.36-.63-.68-.95-.95-.95-.18,0-.54.09-1.09.27-2.17,1.09-4.2,1.63-6.1,1.63-3.17,0-5.02-1.72-5.56-5.16-.09-.81-.16-2.28-.2-4.41-.05-2.12-.07-4.81-.07-8.07v-72.02c0-.99-.27-1.49-.81-1.49h-.54c-.18,0-.32.05-.4.14l-6.92,1.63c-1,.18-1.49.73-1.49,1.63v77.99c0,1.9.02,3.37.07,4.41.04,1.04.11,1.83.2,2.38.09.54.22,1.18.41,1.9.63,2.93,2.17,5.27,4.61,7.01,2.44,1.74,5.51,2.62,9.22,2.62,1.27,0,2.58-.12,3.94-.34,1.36-.23,2.6-.51,3.73-.83,1.13-.32,2.05-.67,2.78-1.03.72-.37,1.08-.74,1.08-1.1v-.28c0-.09-.09-.37-.27-.83l-1.63-5.08Z"/>
      <path class="cls-1" d="M555.31,278.66c-.72-1.36-1.34-2.6-1.83-3.73-.5-1.13-.88-2.35-1.15-3.66-.27-1.31-.45-2.78-.54-4.41-.09-1.63-.14-3.62-.14-5.97v-25.64c0-6.51-1.72-11.3-5.15-14.38-3.44-3.07-8.77-4.61-16-4.61-6.6,0-12.62,1.22-18.04,3.66-1.54.63-2.53,1.11-2.99,1.43-.45.32-.67.7-.67,1.15l.14,1.08,2.03,5.43c.18.45.5.68.95.68.09,0,.41-.09.95-.27,3.53-1.54,6.44-2.58,8.75-3.12,2.3-.54,4.77-.81,7.39-.81,4.52,0,7.73.93,9.63,2.78,1.9,1.86,2.85,4.95,2.85,9.29v4.48c-23.87.36-35.81,8.23-35.81,23.6,0,5.7,1.6,10.22,4.82,13.56,3.21,3.35,7.57,5.02,13.09,5.02,3.8,0,7.21-.68,10.24-2.04,3.03-1.36,6.08-3.53,9.15-6.51.72,2.26,1.58,4.25,2.58,5.97.99,1.72,1.85,2.58,2.58,2.58.27,0,.63-.14,1.08-.41l5.83-3.66c.36-.18.54-.41.54-.68,0-.18-.09-.45-.27-.81ZM541.47,267.94c-5.79,5.15-10.94,7.73-15.47,7.73-2.89,0-5.27-1.02-7.12-3.05-1.85-2.04-2.78-4.63-2.78-7.8,0-9.49,8.46-14.29,25.37-14.38v17.5Z"/>
    </g>
  </g>
  <g id="folha_vertical_opacidade_100" data-name="folha vertical opacidade 100">
    <path class="cls-1" d="M473.88,71.15C398.53,13.79,171.11-40.45,171.69,42.58c.2,29.43,44.16,59.76,83.56,59.01,1.41-.03,1.96,1.9.82,2.72-83.21,59.75-131.3,87.1-194.45,91.42-26.38,1.81-44.48-6.07-57.66-14.88-2.12-1.42-4.49-.43-3.85,3.15,4.75,26.55,62.49,27.46,117.65,8.37,50.48-17.47,87.72-43.77,142.05-83.12,60.66-43.94,141.09-60.08,185.26-44.21,1.25.45,1.09,2.21-.25,2.23-78.97.94-137.95,88.06-153.92,102.26-13.05,11.61-25.17,11.13-28.6,8.25-15.81-13.25-2.57-49.17,12.99-69.11,1.04-1.33-.6-3.09-1.97-2.1-13.33,9.64-33.59,34.77-24.91,70.5,3.63,14.94,18.94,25.85,46.71,3.97,42.39-37.51,76.73-119.07,176.99-105.83,2.32.31,3.62-2.65,1.76-4.07ZM288.66,83.08c-7.19,3.56-14.49,7.5-21.91,11.84-1.41.82-3.9,1.58-5.54,1.58-35.62-.09-82.89-28.18-82.02-52.51,1.06-30,43.84-37.68,94.97-33.57,2.29.18,4.06,2.03,4.24,4.32,1.94,23.79,5.4,34.73,13.86,59.91,1.11,3.3-.49,6.89-3.61,8.44ZM323.44,65.44c-.69,2.06-2.27,3.71-4.29,4.51-3.29,1.31-5.73,2.2-8.95,3.42-1.66.63-3.33-.04-4.72-1.14-10.06-7.89-19.27-29.56-22.25-55.75-.31-2.73,2.13-5.04,4.87-4.78,12.99,1.25,26.4,3.44,39.72,6.47,2.89.66,4.85,3.34,4.65,6.3-.85,12.54-5.6,30.78-9.01,40.97ZM423.27,55.98c-27.72-1.77-56.46.99-83.48,7.66-2.99.74-5.79-1.7-5.45-4.76,1.77-16.03,2.13-26.74,1.84-34.95-.07-2.14,1.9-3.78,3.98-3.27,33.31,8.11,64.32,19.2,84.4,30.45,2.5,1.4,1.56,5.1-1.3,4.88Z"/>
  </g>
  <g id="folha_vertical_opacidade_50" data-name="folha vertical opacidade 50">
    <path class="cls-2" d="M288.66,83.08c-7.19,3.56-14.49,7.5-21.91,11.84-1.41.82-3.9,1.58-5.54,1.58-35.62-.09-82.89-28.18-82.02-52.51,1.06-30,43.84-37.68,94.97-33.57,2.29.18,4.06,2.03,4.24,4.32,1.94,23.79,5.4,34.73,13.86,59.91,1.11,3.3-.49,6.89-3.61,8.44Z"/>
    <path class="cls-2" d="M319.15,69.95c-3.29,1.31-5.73,2.2-8.95,3.42-1.66.63-3.33-.04-4.72-1.14-10.06-7.89-19.27-29.56-22.25-55.75-.31-2.73,2.13-5.04,4.87-4.78,12.99,1.25,26.4,3.44,39.72,6.47,2.89.66,4.85,3.34,4.65,6.3-.85,12.54-5.6,30.78-9.01,40.97-.69,2.06-2.27,3.71-4.29,4.51Z"/>
    <path class="cls-2" d="M423.27,55.98c-27.72-1.77-56.46.99-83.48,7.66-2.99.74-5.79-1.7-5.45-4.76,1.77-16.03,2.13-26.74,1.84-34.95-.07-2.14,1.9-3.78,3.98-3.27,33.31,8.11,64.32,19.2,84.4,30.45,2.5,1.4,1.56,5.1-1.29,4.88Z"/>
  </g>
</svg>